HIERARCHY
ROOT Hips
{
	OFFSET 0.000000 71.427986 0.000000
	CHANNELS 6 Xposition Yposition Zposition Xrotation Yrotation Zrotation
	JOINT Pelvis
	{
		OFFSET 0.000000 0.000000 0.000000
		CHANNELS 3 Xrotation Yrotation Zrotation
		JOINT LeftUpLeg
		{
			OFFSET 6.797100 -2.508499 -1.318700
			CHANNELS 3 Xrotation Yrotation Zrotation
			JOINT LeftLeg
			{
				OFFSET 0.069008 -29.241863 0.690200
				CHANNELS 3 Xrotation Yrotation Zrotation
				JOINT LeftFoot
				{
					OFFSET -0.069008 -29.568123 -0.266800
					CHANNELS 3 Xrotation Yrotation Zrotation
					JOINT LeftToeBase
					{
						OFFSET 3.145500 -8.631000 16.059900
						CHANNELS 3 Xrotation Yrotation Zrotation
						End Site
						{
							OFFSET 0.000000 18.501587 0.000000
						}
					}
				}
			}
			JOINT Left_ShortSleeve
			{
				OFFSET 0.265923 -10.480953 1.153800
				CHANNELS 3 Xrotation Yrotation Zrotation
				End Site
				{
					OFFSET 1.725763 19.823879 0.000000
				}
			}
		}
		JOINT RightUpLeg
		{
			OFFSET -6.797100 -2.508499 -1.318700
			CHANNELS 3 Xrotation Yrotation Zrotation
			JOINT RightLeg
			{
				OFFSET -0.082453 -29.241932 0.688000
				CHANNELS 3 Xrotation Yrotation Zrotation
				JOINT RightFoot
				{
					OFFSET 0.082453 -29.568058 -0.264600
					CHANNELS 3 Xrotation Yrotation Zrotation
					JOINT RightToeBase
					{
						OFFSET -3.115300 -8.682800 16.113400
						CHANNELS 3 Xrotation Yrotation Zrotation
						End Site
						{
							OFFSET 0.000000 18.567114 0.000000
						}
					}
				}
			}
			JOINT Right_ShortSleeve
			{
				OFFSET -0.265923 -10.480953 1.153800
				CHANNELS 3 Xrotation Yrotation Zrotation
				End Site
				{
					OFFSET -1.725766 19.823910 0.000000
				}
			}
		}
	}
	JOINT Spine
	{
		OFFSET 0.000000 13.368103 0.470500
		CHANNELS 3 Xrotation Yrotation Zrotation
		JOINT Spine1
		{
			OFFSET 0.147000 13.837402 0.538800
			CHANNELS 3 Xrotation Yrotation Zrotation
			JOINT Spine2
			{
				OFFSET 0.168000 16.242897 -1.435500
				CHANNELS 3 Xrotation Yrotation Zrotation
				JOINT Neck
				{
					OFFSET 0.217200 18.631500 -1.679100
					CHANNELS 3 Xrotation Yrotation Zrotation
					JOINT Head
					{
						OFFSET 0.000000 6.599396 1.385900
						CHANNELS 3 Xrotation Yrotation Zrotation
						JOINT Hat
						{
							OFFSET -0.532200 27.220596 -10.096100
							CHANNELS 3 Xrotation Yrotation Zrotation
							End Site
							{
								OFFSET 0.000000 22.029861 0.000000
							}
						}
						JOINT HairD
						{
							OFFSET -10.777400 17.437393 -1.325900
							CHANNELS 3 Xrotation Yrotation Zrotation
							JOINT HairD1
							{
								OFFSET -3.290299 -11.051193 1.062200
								CHANNELS 3 Xrotation Yrotation Zrotation
								End Site
								{
									OFFSET 0.000000 11.579437 0.000000
								}
							}
						}
						JOINT HairB
						{
							OFFSET -10.777400 17.437393 1.467900
							CHANNELS 3 Xrotation Yrotation Zrotation
							JOINT HairB1
							{
								OFFSET -1.561200 -12.956299 3.590200
								CHANNELS 3 Xrotation Yrotation Zrotation
								End Site
								{
									OFFSET 0.000000 13.534866 0.000000
								}
							}
						}
						JOINT HairA
						{
							OFFSET 9.713100 17.437393 1.467900
							CHANNELS 3 Xrotation Yrotation Zrotation
							JOINT HairA1
							{
								OFFSET 1.561200 -12.956299 3.590200
								CHANNELS 3 Xrotation Yrotation Zrotation
								End Site
								{
									OFFSET 0.000000 13.534866 0.000000
								}
							}
						}
						JOINT HairC
						{
							OFFSET 9.713100 17.437393 -1.325900
							CHANNELS 3 Xrotation Yrotation Zrotation
							JOINT HairC1
							{
								OFFSET 3.290300 -11.051193 1.062200
								CHANNELS 3 Xrotation Yrotation Zrotation
								End Site
								{
									OFFSET 0.000000 11.579437 0.000000
								}
							}
						}
					}
				}
				JOINT LeftShoulder
				{
					OFFSET 5.101800 15.108002 -2.763700
					CHANNELS 3 Xrotation Yrotation Zrotation
					JOINT LeftArm
					{
						OFFSET 9.825497 2.506317 -1.597400
						CHANNELS 3 Xrotation Yrotation Zrotation
						JOINT LeftForeArm
						{
							OFFSET 21.966244 0.000000 0.000000
							CHANNELS 3 Xrotation Yrotation Zrotation
							JOINT LeftHand
							{
								OFFSET 33.879036 0.000000 0.000000
								CHANNELS 3 Xrotation Yrotation Zrotation
								JOINT LeftHandThumb1
								{
									OFFSET 6.715286 -2.359680 3.363841
									CHANNELS 3 Xrotation Yrotation Zrotation
									JOINT LeftHandThumb2
									{
										OFFSET 2.507072 -1.447464 1.447461
										CHANNELS 3 Xrotation Yrotation Zrotation
										JOINT LeftHandThumb3
										{
											OFFSET 2.898338 -1.673355 1.673357
											CHANNELS 3 Xrotation Yrotation Zrotation
											End Site
											{
												OFFSET -0.295959 3.727692 -0.131651
											}
										}
									}
								}
								JOINT LeftHandIndex1
								{
									OFFSET 14.190811 -0.254547 3.840278
									CHANNELS 3 Xrotation Yrotation Zrotation
									JOINT LeftHandIndex2
									{
										OFFSET 3.551727 0.000000 -0.000000
										CHANNELS 3 Xrotation Yrotation Zrotation
										JOINT LeftHandIndex3
										{
											OFFSET 2.894196 0.000000 0.000000
											CHANNELS 3 Xrotation Yrotation Zrotation
											End Site
											{
												OFFSET -1.000603 2.690872 0.366626
											}
										}
									}
								}
								JOINT LeftHandMiddle1
								{
									OFFSET 13.776489 0.000000 0.000000
									CHANNELS 3 Xrotation Yrotation Zrotation
									JOINT LeftHandMiddle2
									{
										OFFSET 3.438232 0.000000 0.000000
										CHANNELS 3 Xrotation Yrotation Zrotation
										JOINT LeftHandMiddle3
										{
											OFFSET 3.691551 0.000000 0.000000
											CHANNELS 3 Xrotation Yrotation Zrotation
											End Site
											{
												OFFSET -1.082298 3.499527 0.457670
											}
										}
									}
								}
								JOINT LeftHandRing1
								{
									OFFSET 13.966164 -0.268127 -3.067488
									CHANNELS 3 Xrotation Yrotation Zrotation
									JOINT LeftHandRing2
									{
										OFFSET 3.162567 0.000000 0.000000
										CHANNELS 3 Xrotation Yrotation Zrotation
										JOINT LeftHandRing3
										{
											OFFSET 3.324348 0.000000 0.000000
											CHANNELS 3 Xrotation Yrotation Zrotation
											End Site
											{
												OFFSET -0.861900 3.184998 0.405154
											}
										}
									}
								}
								JOINT LeftHandPinky1
								{
									OFFSET 13.131393 -0.168503 -5.746925
									CHANNELS 3 Xrotation Yrotation Zrotation
									JOINT LeftHandPinky2
									{
										OFFSET 2.849182 0.000000 0.000000
										CHANNELS 3 Xrotation Yrotation Zrotation
										JOINT LeftHandPinky3
										{
											OFFSET 2.805038 0.000000 0.000000
											CHANNELS 3 Xrotation Yrotation Zrotation
											End Site
											{
												OFFSET -0.882500 2.642609 0.325652
											}
										}
									}
								}
							}
							JOINT Left_Sleeve
							{
								OFFSET 6.592125 -0.646545 0.805568
								CHANNELS 3 Xrotation Yrotation Zrotation
								End Site
								{
									OFFSET -0.000179 20.275787 -0.000000
								}
							}
						}
					}
				}
				JOINT RightShoulder
				{
					OFFSET -5.731700 15.108002 -2.763700
					CHANNELS 3 Xrotation Yrotation Zrotation
					JOINT RightArm
					{
						OFFSET -9.825497 2.506317 -1.597400
						CHANNELS 3 Xrotation Yrotation Zrotation
						JOINT RightForeArm
						{
							OFFSET -21.966242 0.000000 0.000000
							CHANNELS 3 Xrotation Yrotation Zrotation
							JOINT RightHand
							{
								OFFSET -33.879032 0.000000 0.000000
								CHANNELS 3 Xrotation Yrotation Zrotation
								JOINT RightHandThumb1
								{
									OFFSET -6.715286 -2.359680 3.363841
									CHANNELS 3 Xrotation Yrotation Zrotation
									JOINT RightHandThumb2
									{
										OFFSET -2.507072 -1.447464 1.447461
										CHANNELS 3 Xrotation Yrotation Zrotation
										JOINT RightHandThumb3
										{
											OFFSET -2.898338 -1.673355 1.673357
											CHANNELS 3 Xrotation Yrotation Zrotation
											End Site
											{
												OFFSET 0.295959 3.727692 -0.131651
											}
										}
									}
								}
								JOINT RightHandIndex1
								{
									OFFSET -14.190811 -0.254547 3.840278
									CHANNELS 3 Xrotation Yrotation Zrotation
									JOINT RightHandIndex2
									{
										OFFSET -3.551727 0.000000 -0.000000
										CHANNELS 3 Xrotation Yrotation Zrotation
										JOINT RightHandIndex3
										{
											OFFSET -2.894196 0.000000 0.000000
											CHANNELS 3 Xrotation Yrotation Zrotation
											End Site
											{
												OFFSET 1.000603 2.690872 0.366626
											}
										}
									}
								}
								JOINT RightHandMiddle1
								{
									OFFSET -13.776489 0.000000 0.000000
									CHANNELS 3 Xrotation Yrotation Zrotation
									JOINT RightHandMiddle2
									{
										OFFSET -3.438232 0.000000 0.000000
										CHANNELS 3 Xrotation Yrotation Zrotation
										JOINT RightHandMiddle3
										{
											OFFSET -3.691551 0.000000 0.000000
											CHANNELS 3 Xrotation Yrotation Zrotation
											End Site
											{
												OFFSET 1.082298 3.499527 0.457670
											}
										}
									}
								}
								JOINT RightHandRing1
								{
									OFFSET -13.966164 -0.268127 -3.067488
									CHANNELS 3 Xrotation Yrotation Zrotation
									JOINT RightHandRing2
									{
										OFFSET -3.162567 0.000000 0.000000
										CHANNELS 3 Xrotation Yrotation Zrotation
										JOINT RightHandRing3
										{
											OFFSET -3.324348 0.000000 0.000000
											CHANNELS 3 Xrotation Yrotation Zrotation
											End Site
											{
												OFFSET 0.861900 3.184998 0.405154
											}
										}
									}
								}
								JOINT RightHandPinky1
								{
									OFFSET -13.131393 -0.168503 -5.746925
									CHANNELS 3 Xrotation Yrotation Zrotation
									JOINT RightHandPinky2
									{
										OFFSET -2.849182 0.000000 0.000000
										CHANNELS 3 Xrotation Yrotation Zrotation
										JOINT RightHandPinky3
										{
											OFFSET -2.805038 0.000000 0.000000
											CHANNELS 3 Xrotation Yrotation Zrotation
											End Site
											{
												OFFSET 0.882500 2.642609 0.325652
											}
										}
									}
								}
							}
							JOINT Right_Sleeve
							{
								OFFSET -6.592125 -0.646545 0.805568
								CHANNELS 3 Xrotation Yrotation Zrotation
								End Site
								{
									OFFSET 0.000179 20.275787 -0.000000
								}
							}
						}
					}
				}
				JOINT Bind_Right_JacketString
				{
					OFFSET -3.534800 11.969597 7.200700
					CHANNELS 3 Xrotation Yrotation Zrotation
					JOINT Bind_Right_JacketString1
					{
						OFFSET -0.319900 -6.102600 2.794100
						CHANNELS 3 Xrotation Yrotation Zrotation
						End Site
						{
							OFFSET 0.000000 6.719452 0.000000
						}
					}
				}
				JOINT Bind_Left_JacketString
				{
					OFFSET 2.904800 11.969597 7.200700
					CHANNELS 3 Xrotation Yrotation Zrotation
					JOINT Bind_Left_JacketString1
					{
						OFFSET 0.364800 -5.904503 3.186800
						CHANNELS 3 Xrotation Yrotation Zrotation
						End Site
						{
							OFFSET 0.000000 6.719513 0.000000
						}
					}
				}
				JOINT HairE
				{
					OFFSET 5.915200 17.612701 -11.592200
					CHANNELS 3 Xrotation Yrotation Zrotation
					JOINT HairE1
					{
						OFFSET 0.289200 -7.171898 -1.284500
						CHANNELS 3 Xrotation Yrotation Zrotation
						End Site
						{
							OFFSET 0.000000 7.291756 0.000000
						}
					}
				}
				JOINT HairF
				{
					OFFSET -0.864800 17.612701 -11.592200
					CHANNELS 3 Xrotation Yrotation Zrotation
					JOINT HairF1
					{
						OFFSET 0.000000 -14.087097 -2.127501
						CHANNELS 3 Xrotation Yrotation Zrotation
						End Site
						{
							OFFSET 0.000000 14.246841 0.000000
						}
					}
				}
				JOINT HairG
				{
					OFFSET -8.087700 17.612701 -11.592200
					CHANNELS 3 Xrotation Yrotation Zrotation
					JOINT HairG1
					{
						OFFSET -0.293600 -6.081398 -0.910100
						CHANNELS 3 Xrotation Yrotation Zrotation
						End Site
						{
							OFFSET 0.000000 6.156120 0.000000
						}
					}
				}
			}
		}
	}
	JOINT Pouch
	{
		OFFSET 0.000000 4.394501 10.847300
		CHANNELS 3 Xrotation Yrotation Zrotation
		End Site
		{
			OFFSET 0.000000 21.880577 0.000000
		}
	}
	JOINT Bag
	{
		OFFSET -13.229000 4.813004 -0.593300
		CHANNELS 3 Xrotation Yrotation Zrotation
		End Site
		{
			OFFSET 0.000000 21.880577 0.000000
		}
	}
	JOINT OccupyGuyFacialAnim_Joint
	{
		OFFSET 1.000000 -70.206398 -1.655000
		CHANNELS 3 Xrotation Yrotation Zrotation
		End Site
		{
			OFFSET 0.000000 21.880577 0.000000
		}
	}
}
MOTION
Frames: 4
Frame Time: 0.016667
-0.036115 69.835838 1.239316 -2.259905 -0.268020 -0.967195 -0.000000 -0.000000 0.000000 -22.669871 6.185470 -0.584701 66.222782 22.508419 1.142485 -4.196180 -0.331442 3.003744 0.000002 -0.000000 -0.000000 0.000002 -0.000000 0.000000 -9.992942 -2.275381 6.157497 23.975448 -6.749667 -0.347508 -13.695356 0.458445 -3.797985 -0.000000 -0.000000 -0.000000 0.000000 0.000000 -0.000001 1.799710 -1.328386 0.934293 3.579706 -2.533197 0.673625 3.579706 -2.533199 0.673625 -2.439474 1.360550 -0.177269 -0.112018 5.844294 -0.079478 0.000001 0.000000 0.000000 0.000001 0.000000 0.000000 0.000001 0.000000 0.000000 0.000001 0.000000 0.000000 0.000000 0.000000 0.000000 0.000001 0.000000 0.000000 0.000000 0.000000 0.000000 0.000001 0.000000 0.000000 0.000001 0.000000 0.000000 0.442703 -8.235237 -13.151900 -0.624804 -8.808432 -59.472274 19.132401 -19.316364 6.827563 -5.405357 -8.531729 1.793568 25.111238 -2.687238 20.499102 9.304972 24.441173 -0.847860 0.000002 0.000000 -0.000007 0.599991 6.911503 -23.883865 2.733487 1.542660 -36.765979 -0.000001 0.000002 0.000002 0.976166 7.422058 -32.221708 5.809217 1.256773 -45.781143 -0.000001 0.000003 -0.000001 -1.227813 6.340707 -44.477864 7.491194 2.055264 -50.574440 -0.000002 -0.000001 -0.000001 -5.698658 1.174845 -43.952742 10.001134 3.459257 -50.341954 -0.000004 -0.000003 0.000001 -0.000001 -0.000000 -0.000001 0.662847 2.643783 20.148732 -3.947857 -2.327091 62.260337 16.631073 11.939498 -3.786002 -4.421751 12.103409 -12.551331 3.824818 -12.345961 -1.042581 4.523892 -9.504801 0.488635 0.000000 -0.000001 0.000000 3.545369 -9.668669 69.326700 8.886333 -3.241684 112.372581 0.000000 -0.000001 0.000002 5.660030 -9.815701 93.151705 8.809070 -2.682469 83.366284 0.000001 0.000002 -0.000002 4.831695 -12.380519 97.852493 10.912788 -3.225631 91.663495 -0.000001 -0.000001 -0.000000 0.270003 -10.740429 93.149772 10.737839 -3.968358 60.274316 -0.000000 0.000002 -0.000003 0.000000 -0.000000 0.000001 -0.000001 -0.000000 0.000000 -0.000001 -0.000000 0.000000 -0.000001 -0.000000 0.000000 -0.000001 -0.000000 0.000000 -0.000001 -0.000000 0.000000 -0.000001 -0.000000 0.000000 -0.000001 -0.000000 0.000000 -0.000001 -0.000000 0.000000 -0.000001 -0.000000 0.000000 -0.000001 -0.000000 0.000000 -0.000000 -0.000000 0.000000 -0.000000 -0.000000 0.000000 -0.000000 -0.000000 0.000000 
-0.016607 70.010956 2.404780 -1.710125 -0.637923 -0.688292 -0.000000 0.000000 -0.000000 -24.471326 5.862042 -1.157257 62.595262 22.947677 0.867640 -6.870830 -0.278844 2.947792 -0.000002 -0.000001 0.000000 -0.000000 0.000000 -0.000001 -8.837228 -2.433685 5.721752 22.748102 -5.986408 -0.294605 -13.736147 0.357592 -3.599302 -0.000000 0.000000 -0.000000 -0.000000 0.000000 0.000000 1.757652 -1.184403 0.830844 3.499180 -2.307243 0.585557 3.499179 -2.307242 0.585556 -2.612417 1.430621 -0.247577 -0.487292 6.028377 -0.126740 0.000001 0.000000 0.000000 0.000001 0.000000 0.000000 0.000001 0.000000 0.000000 0.000001 0.000000 0.000000 0.000000 -0.000000 0.000000 0.000001 0.000000 0.000000 0.000000 -0.000000 0.000000 0.000001 0.000000 0.000000 0.000001 0.000000 0.000000 0.454671 -7.470879 -13.168886 0.654382 -8.470601 -60.205973 20.427842 -18.521863 7.029654 -5.433721 -8.505588 0.903303 25.111242 -2.687243 20.499104 9.304975 24.441171 -0.847851 0.000000 -0.000001 -0.000003 0.599988 6.911500 -23.883862 2.733482 1.542660 -36.765976 0.000002 -0.000003 -0.000002 0.976163 7.422058 -32.221704 5.809218 1.256772 -45.781143 -0.000001 0.000000 -0.000003 -1.227819 6.340707 -44.477857 7.491188 2.055264 -50.574436 0.000001 0.000005 -0.000003 -5.698658 1.174842 -43.952742 10.001140 3.459256 -50.341961 -0.000000 -0.000004 0.000002 0.000000 0.000000 -0.000001 0.612389 3.164849 19.977245 -3.874864 -2.174095 62.247749 16.807781 12.161557 -3.873181 -4.359216 12.263648 -12.987767 3.824820 -12.345960 -1.042583 4.523890 -9.504800 0.488634 0.000001 -0.000001 -0.000001 3.545371 -9.668668 69.326700 8.886331 -3.241681 112.372588 -0.000001 -0.000002 0.000002 5.660032 -9.815702 93.151711 8.809070 -2.682466 83.366277 0.000001 -0.000000 0.000001 4.831693 -12.380517 97.852493 10.912790 -3.225633 91.663495 0.000002 0.000000 -0.000000 0.270004 -10.740426 93.149772 10.737836 -3.968358 60.274316 0.000000 0.000001 -0.000003 0.000000 0.000000 -0.000000 0.000000 -0.000001 0.000000 0.000000 -0.000001 -0.000000 0.000000 -0.000001 0.000000 0.000000 -0.000001 0.000000 0.000000 -0.000001 0.000000 0.000000 -0.000001 -0.000000 0.000000 -0.000001 0.000000 0.000000 -0.000001 0.000000 0.000000 -0.000001 0.000000 0.000000 -0.000001 -0.000000 -0.000000 0.000000 -0.000000 -0.000000 0.000000 -0.000000 -0.000000 0.000000 -0.000000 
-0.002657 70.146729 3.556641 -1.173497 -0.907672 -0.441971 0.000000 -0.000000 0.000000 -26.064782 5.564430 -1.648203 58.098081 23.303426 0.629698 -7.907717 -0.317950 3.540043 -0.000002 -0.000002 0.000001 -0.000001 0.000000 -0.000000 -8.033306 -2.449606 5.435252 22.131133 -5.633130 -0.281523 -13.969584 0.311445 -3.599790 -0.000000 0.000000 0.000000 -0.000001 0.000000 0.000000 1.721236 -1.050017 0.727415 3.429611 -2.089984 0.502384 3.429610 -2.089986 0.502384 -2.884452 1.504297 -0.301506 -0.874098 6.243010 -0.145089 -0.000000 0.000000 -0.000000 -0.000000 0.000000 -0.000000 -0.000000 0.000000 -0.000000 -0.000000 0.000000 0.000000 -0.000000 0.000000 0.000000 -0.000000 0.000000 0.000000 -0.000000 0.000000 0.000000 -0.000000 0.000000 -0.000000 -0.000000 0.000000 -0.000000 0.465241 -6.814612 -13.199838 2.004796 -7.912367 -60.971726 21.519956 -17.949080 7.215306 -5.434433 -8.398267 0.544513 25.111235 -2.687239 20.499102 9.304974 24.441176 -0.847863 0.000000 0.000004 0.000003 0.599987 6.911504 -23.883867 2.733487 1.542659 -36.765973 0.000002 -0.000002 -0.000004 0.976168 7.422058 -32.221701 5.809215 1.256776 -45.781146 0.000000 0.000004 0.000001 -1.227815 6.340708 -44.477861 7.491191 2.055264 -50.574440 -0.000002 0.000001 -0.000001 -5.698652 1.174844 -43.952742 10.001131 3.459260 -50.341961 -0.000000 0.000000 0.000003 0.000003 0.000002 -0.000002 0.568604 3.632619 19.811348 -4.195719 -1.838513 62.254005 16.903214 11.565497 -3.698449 -4.232663 12.781651 -13.807297 3.824822 -12.345963 -1.042580 4.523891 -9.504802 0.488637 -0.000000 0.000000 0.000001 3.545371 -9.668672 69.326700 8.886333 -3.241682 112.372581 0.000001 -0.000001 -0.000002 5.660032 -9.815704 93.151711 8.809069 -2.682469 83.366291 -0.000001 -0.000000 -0.000001 4.831695 -12.380520 97.852493 10.912789 -3.225631 91.663488 -0.000001 0.000003 -0.000002 0.270006 -10.740432 93.149772 10.737834 -3.968358 60.274309 0.000001 0.000000 0.000001 -0.000000 -0.000001 0.000000 -0.000001 0.000000 -0.000000 0.000000 -0.000000 -0.000000 -0.000001 0.000000 -0.000000 -0.000001 0.000000 -0.000000 -0.000001 0.000000 -0.000000 0.000000 -0.000000 -0.000000 -0.000001 0.000000 -0.000000 -0.000001 0.000000 -0.000000 -0.000001 0.000000 -0.000000 0.000000 -0.000000 -0.000000 0.000000 -0.000000 0.000000 0.000000 -0.000000 0.000000 0.000000 -0.000000 0.000000 
0.013637 70.240944 4.706761 -0.656841 -1.104139 -0.217156 -0.000000 -0.000000 -0.000000 -27.183200 5.491551 -2.127191 52.557991 23.648591 0.493227 -7.883360 -0.468385 5.037345 -0.000001 0.000001 0.000000 -0.000002 0.000000 -0.000000 -7.292691 -2.312062 5.237379 21.660972 -5.611481 -0.262444 -14.344978 0.316806 -3.781508 0.000000 0.000000 0.000000 0.000002 0.000000 -0.000001 1.688415 -0.922863 0.620157 3.367075 -1.875274 0.425677 3.367077 -1.875274 0.425678 -3.208037 1.587581 -0.346729 -1.269628 6.495311 -0.154898 0.000000 -0.000000 0.000000 0.000000 -0.000000 0.000000 0.000000 -0.000000 0.000000 0.000000 -0.000000 0.000000 0.000000 -0.000000 0.000000 0.000000 -0.000000 0.000000 0.000000 -0.000000 0.000000 0.000000 -0.000000 0.000000 0.000000 -0.000000 0.000000 0.474699 -6.235076 -13.243597 3.418575 -7.247816 -61.761767 22.479435 -17.502571 7.388010 -5.421032 -8.252958 0.460562 25.111242 -2.687241 20.499102 9.304974 24.441173 -0.847859 0.000002 0.000001 0.000002 0.599985 6.911503 -23.883860 2.733483 1.542659 -36.765973 -0.000001 -0.000001 -0.000002 0.976165 7.422056 -32.221701 5.809214 1.256774 -45.781136 0.000003 0.000002 0.000001 -1.227816 6.340708 -44.477861 7.491188 2.055267 -50.574440 -0.000000 -0.000001 0.000002 -5.698662 1.174843 -43.952735 10.001134 3.459259 -50.341961 -0.000002 -0.000003 0.000001 0.000003 -0.000001 -0.000000 0.529727 4.063020 19.648231 -4.740134 -1.403324 62.276504 16.928798 10.477828 -3.360541 -4.051105 13.541999 -14.887381 3.824822 -12.345964 -1.042584 4.523895 -9.504802 0.488638 -0.000001 -0.000001 -0.000001 3.545367 -9.668668 69.326693 8.886335 -3.241684 112.372581 0.000001 0.000000 0.000002 5.660030 -9.815700 93.151705 8.809071 -2.682467 83.366291 0.000001 0.000002 0.000001 4.831693 -12.380519 97.852487 10.912790 -3.225632 91.663488 -0.000001 0.000002 0.000000 0.270006 -10.740426 93.149772 10.737836 -3.968359 60.274309 -0.000001 -0.000001 0.000004 -0.000000 -0.000001 0.000000 -0.000000 -0.000000 0.000000 0.000001 0.000000 -0.000000 -0.000000 -0.000000 0.000000 -0.000000 -0.000000 0.000000 -0.000000 -0.000000 0.000000 0.000001 0.000000 -0.000000 -0.000000 -0.000000 0.000000 -0.000000 -0.000000 0.000000 -0.000000 -0.000000 0.000000 0.000001 0.000000 -0.000000 -0.000000 -0.000000 -0.000000 -0.000000 -0.000000 -0.000000 -0.000000 -0.000000 -0.000000 
